<?xml version="1.0" encoding="utf-8"?>
<!-- Generator: Adobe Illustrator 28.1.0, SVG Export Plug-In . SVG Version: 6.00 Build 0)  -->
<svg version="1.1" id="Filled" xmlns="http://www.w3.org/2000/svg" xmlns:xlink="http://www.w3.org/1999/xlink" x="0px" y="0px"
	 viewBox="0 0 512 512" style="enable-background:new 0 0 512 512;" xml:space="preserve">
<path d="M18.7,210.8c-25,25-25,65.5,0,90.5l125.4,125.4c8,8,18.8,12.5,30.2,12.5c23.6,0,42.7-19.1,42.7-42.7v-33.8h124.4
	c70.7,0.1,127.9,57.3,128,128c0,11.8,9.6,21.3,21.3,21.3s21.3-9.6,21.3-21.3V341.3c-0.1-106-86-191.9-192-192H217v-33.8
	c0-11.3-4.5-22.2-12.5-30.2c-16.7-16.7-43.7-16.7-60.3,0L18.7,210.8z"/>
</svg>
