<?xml version="1.0" encoding="utf-8"?>
<!-- Generator: Adobe Illustrator 28.1.0, SVG Export Plug-In . SVG Version: 6.00 Build 0)  -->
<svg version="1.1" id="Layer_1" xmlns="http://www.w3.org/2000/svg" xmlns:xlink="http://www.w3.org/1999/xlink" x="0px" y="0px"
	 viewBox="0 0 24 24" style="enable-background:new 0 0 24 24;" xml:space="preserve">
<style type="text/css">
	.st0{fill:#FFFFFF;}
</style>
<path class="st0" d="M21,17h-1V4c0-2.2-1.8-4-4-4H3.5C1.6,0,0,1.6,0,3.5V4c0,1.7,1.3,3,3,3h2v13.5C5,22.4,6.6,24,8.5,24h12
	c1.9,0,3.5-1.6,3.5-3.5V20C24,18.3,22.7,17,21,17z M5,5H3C2.4,5,2,4.6,2,4V3.5C2,2.7,2.7,2,3.5,2S5,2.7,5,3.5V5z M10,20v0.5
	c0,0.8-0.7,1.5-1.5,1.5S7,21.3,7,20.5v-17C7,3,6.9,2.5,6.6,2H16c1.1,0,2,0.9,2,2v13h-5C11.3,17,10,18.3,10,20z M22,20.5
	c0,0.8-0.7,1.5-1.5,1.5h-8.8c0.2-0.5,0.3-1,0.3-1.5V20c0-0.6,0.4-1,1-1h8c0.6,0,1,0.4,1,1V20.5z"/>
</svg>
